<svg width="1349" height="196" viewBox="0 0 1349 196" fill="none" xmlns="http://www.w3.org/2000/svg">
<path d="M98.1155 0C111.444 0 123.996 2.55474 135.754 7.64833C147.512 12.7419 157.906 19.6762 166.919 28.4194C175.932 37.1784 183.056 47.5719 188.277 59.5838C193.497 71.6117 196.115 84.4171 196.115 98C196.115 111.853 193.497 124.722 188.277 136.607C183.056 148.507 175.932 158.837 166.919 167.581C157.906 176.34 147.512 183.258 135.754 188.352C123.996 193.445 111.444 196 98.1155 196C84.2628 196 71.394 193.445 59.5089 188.352C47.608 183.258 37.278 176.34 28.5348 167.581C19.7758 158.837 12.8574 148.507 7.76379 136.607C2.67021 124.722 0.115479 111.853 0.115479 98C0.115479 84.4171 2.67021 71.6117 7.76379 59.5838C12.8574 47.5719 19.7758 37.1784 28.5348 28.4194C37.278 19.6762 47.608 12.7419 59.5089 7.64833C71.394 2.53887 84.2628 0 98.1155 0ZM98.1155 178.768C109.159 178.768 119.585 176.609 129.407 172.309C139.229 168.009 147.782 162.217 155.049 154.95C162.317 147.682 168.109 139.13 172.409 129.307C176.709 119.485 178.867 109.06 178.867 98.0159C178.867 86.9877 176.709 76.5466 172.409 66.7244C168.093 56.9022 162.317 48.3494 155.049 41.0819C147.782 33.8145 139.229 28.0227 129.407 23.7225C119.585 19.4223 109.144 17.2643 98.1155 17.2643C87.0714 17.2643 76.6304 19.4223 66.824 23.7225C57.0018 28.0386 48.449 33.8145 41.1815 41.0819C33.9141 48.3494 28.1223 56.9022 23.8221 66.7244C19.506 76.5466 17.3639 86.9877 17.3639 98.0159C17.3639 109.06 19.5219 119.501 23.8221 129.307C28.1223 139.13 33.9141 147.682 41.1815 154.95C48.449 162.217 57.0018 168.009 66.824 172.309C76.6462 176.625 87.0714 178.768 98.1155 178.768Z" fill="#232323"/>
<path d="M389.068 184.941C376.771 184.941 365.362 182.672 354.81 178.15C344.258 173.628 335.086 167.487 327.327 159.712C319.551 151.952 313.41 142.796 308.888 132.228C304.366 121.676 302.097 110.267 302.097 97.9696V11.0295H319.488V98.0014C319.488 107.522 321.344 116.503 325.057 124.961C328.755 133.418 333.753 140.781 340.021 147.049C346.289 153.317 353.636 158.299 362.109 162.012C370.567 165.725 379.548 167.582 389.068 167.582C398.573 167.582 407.555 165.725 416.028 162.012C424.486 158.315 431.848 153.317 438.116 147.049C444.384 140.781 449.366 133.434 453.079 124.961C456.777 116.503 458.649 107.522 458.649 98.0014V11.0613H476.04V98.0014C476.04 110.299 473.724 121.708 469.09 132.26C464.457 142.812 458.141 151.984 450.128 159.743C442.131 167.518 432.911 173.659 422.486 178.182C412.029 182.688 400.906 184.941 389.068 184.941Z" fill="#232323"/>
<path d="M619.501 36.6237C613.472 42.0664 610.457 49.2069 610.457 58.0136C610.457 66.8202 613.472 74.2465 619.501 80.2762C625.531 86.306 632.941 89.321 641.764 89.321H680.021H720.024C726.514 89.321 732.592 90.5428 738.288 92.9705C743.969 95.3983 748.951 98.7782 753.252 103.062C757.536 107.363 760.9 112.329 763.328 118.01C765.755 123.691 766.977 129.784 766.977 136.274C766.977 142.764 765.755 148.968 763.328 154.887C760.9 160.79 757.536 165.963 753.252 170.374C748.951 174.769 743.969 178.308 738.288 180.974C732.608 183.64 726.514 184.972 720.024 184.972H600.428V167.581H720.024C727.895 167.581 734.797 164.566 740.716 158.537C746.619 152.507 749.586 145.096 749.586 136.274C749.586 127.467 746.635 120.343 740.716 114.884C734.797 109.441 727.895 106.712 720.024 106.712H680.021H641.764C634.814 106.712 628.371 105.379 622.453 102.713C616.55 100.048 611.377 96.5249 606.982 92.1136C602.57 87.7182 599.159 82.5454 596.715 76.6267C594.287 70.7238 593.065 64.5194 593.065 58.0295C593.065 51.5395 594.287 45.4462 596.715 39.7655C599.143 34.0848 602.57 29.1023 606.982 24.8021C611.377 20.5178 616.55 17.1538 622.453 14.7102C628.371 12.2824 634.798 11.0605 641.764 11.0605H744.905V28.4518H641.764C632.957 28.4359 625.531 31.1652 619.501 36.6237Z" fill="#232323"/>
<path d="M970.976 0.395996C984.511 0.395996 997.253 2.93488 1009.23 8.0126C1021.2 13.0903 1031.54 19.9928 1040.27 28.7043C1049 37.4316 1055.88 47.7775 1060.96 59.7419C1066.04 71.7221 1068.58 84.4799 1068.58 97.9993V195.603H1049.06V156.568C1040.21 168.278 1028.89 177.719 1015.1 184.876C1001.3 192.032 986.606 195.618 970.992 195.618C957.187 195.618 944.381 193.08 932.544 188.002C920.691 182.94 910.408 176.037 901.697 167.31C892.969 158.599 886.083 148.316 881.005 136.463C875.927 124.626 873.388 111.804 873.388 98.0152C873.388 84.4958 875.927 71.738 881.005 59.7578C886.067 47.7934 892.969 37.4475 901.697 28.7202C910.408 20.0087 920.691 13.1062 932.544 8.02844C944.365 2.93485 957.187 0.395996 970.976 0.395996ZM970.976 178.973C982.036 178.973 992.493 176.815 1002.36 172.499C1012.22 168.183 1020.79 162.375 1028.07 155.092C1035.35 147.809 1041.16 139.24 1045.48 129.386C1049.79 119.532 1051.95 109.075 1051.95 97.9993C1051.95 86.9394 1049.79 76.4824 1045.48 66.6126C1041.16 56.7587 1035.35 48.19 1028.07 40.9067C1020.79 33.6233 1012.2 27.8157 1002.36 23.4996C992.509 19.1836 982.052 17.0255 970.976 17.0255C959.9 17.0255 949.443 19.1836 939.589 23.4996C929.735 27.8157 921.167 33.6233 913.883 40.9067C906.6 48.19 900.792 56.7745 896.476 66.6126C892.16 76.4666 890.002 86.9394 890.002 97.9993C890.002 109.075 892.16 119.532 896.476 129.386C900.792 139.24 906.6 147.809 913.883 155.092C921.167 162.375 929.735 168.183 939.589 172.499C949.443 176.831 959.9 178.973 970.976 178.973Z" fill="#232323"/>
<path d="M1261.94 11.0605C1273.77 11.0605 1284.91 13.3297 1295.33 17.852C1305.76 22.3743 1314.98 28.5152 1322.97 36.2905C1330.97 44.0657 1337.29 53.285 1341.93 63.9324C1346.57 74.5956 1348.89 85.9728 1348.89 98.0165H1331.49C1331.49 88.5117 1329.64 79.5305 1325.92 71.057C1322.21 62.5994 1317.23 55.2367 1310.96 48.9689C1304.69 42.7011 1297.33 37.7186 1288.87 34.0055C1280.42 30.3083 1271.42 28.4359 1261.91 28.4359C1252.39 28.4359 1243.41 30.2924 1234.95 34.0055C1226.5 37.7186 1219.13 42.7011 1212.87 48.9689C1206.6 55.2367 1201.62 62.5994 1197.9 71.057C1194.19 79.5146 1192.33 88.5117 1192.33 98.0165V184.957H1174.94V98.0006C1174.94 85.9569 1177.21 74.5797 1181.73 63.9165C1186.26 53.2533 1192.4 44.0499 1200.17 36.2746C1207.93 28.5152 1217.09 22.3744 1227.65 17.8362C1238.22 13.3138 1249.65 11.0605 1261.94 11.0605Z" fill="#232323"/>
</svg>
